# Blender 4.0.2
# www.blender.org
mtllib corner.mtl
o Plane
v 1.000000 0.000000 1.000000
v 0.333333 0.000000 1.000000
v 1.000000 0.000000 0.333333
v 0.333333 0.000000 0.333333
v 0.333333 0.120000 1.000000
v 1.000000 0.120000 1.000000
v 1.000000 0.120000 0.333333
v 0.333333 0.120000 0.333333
v 0.333333 -8.000000 1.000000
v 1.000000 -8.000000 0.333333
v 0.333333 -8.000000 0.333333
vn -0.0000 -0.0000 1.0000
vn -0.0000 -1.0000 -0.0000
vn -0.0000 1.0000 -0.0000
vn -1.0000 -0.0000 -0.0000
vn -0.0000 -0.0000 -1.0000
vn 1.0000 -0.0000 -0.0000
vt 0.000000 0.000000
vt 1.000000 0.333333
vt 0.666667 0.000000
vt 0.666667 0.333333
vt 1.000000 0.000000
s 0
f 2/1/1 1/1/1 6/1/1 5/1/1
f 3/2/2 2/3/2 4/4/2
f 5/3/3 6/5/3 7/2/3 8/4/3
f 4/4/4 2/3/4 5/3/4 8/4/4
f 3/2/5 4/4/5 8/4/5 7/2/5
f 1/1/6 3/1/6 7/1/6 6/1/6
f 4/4/5 3/2/5 10/2/5 11/4/5
f 2/3/4 4/4/4 11/4/4 9/3/4
