# Blender 4.0.2
# www.blender.org
mtllib fence.mtl
o Plane
v -1.000000 0.000000 1.000000
v 1.000000 0.000000 1.000000
v -1.000000 0.000000 -1.000000
v 1.000000 0.000000 -1.000000
vn -0.0000 1.0000 -0.0000
vt 0.000000 0.000000
vt 1.000000 0.000000
vt 1.000000 1.000000
vt 0.000000 1.000000
s 0
f 1/1/1 2/2/1 4/3/1 3/4/1
o Cube
v -0.500000 0.000000 1.000000
v -0.500000 1.000000 1.000000
v -0.500000 -0.000000 -1.000000
v -0.500000 1.000000 -1.000000
v 0.500000 0.000000 1.000000
v 0.500000 1.000000 1.000000
v 0.500000 -0.000000 -1.000000
v 0.500000 1.000000 -1.000000
v -0.500000 1.000000 0.333334
v -0.500000 1.000000 -0.333334
v -0.166667 1.000000 -1.000000
v 0.166667 1.000000 -1.000000
v 0.500000 1.000000 -0.333334
v 0.500000 1.000000 0.333334
v 0.166667 1.000000 1.000000
v -0.166667 1.000000 1.000000
v 0.166667 1.000000 -0.333334
v 0.166667 1.000000 0.333334
v -0.166667 1.000000 -0.333334
v -0.166667 1.000000 0.333334
v -0.500000 1.000000 0.333334
v -0.500000 1.000000 -0.333334
v -0.166667 1.000000 -1.000000
v 0.166667 1.000000 -1.000000
v 0.500000 1.000000 -0.333334
v 0.500000 1.000000 0.333334
v 0.166667 1.000000 1.000000
v -0.166667 1.000000 1.000000
v 0.166667 1.000000 0.333334
v 0.166667 1.000000 -0.333334
v -0.166667 1.000000 0.333334
v -0.166667 1.000000 -0.333334
v -0.500000 0.650000 0.333334
v -0.500000 0.650000 -0.333334
v -0.166667 0.650000 -1.000000
v 0.166667 0.650000 -1.000000
v 0.500000 0.650000 -0.333334
v 0.500000 0.650000 0.333334
v 0.166667 0.650000 1.000000
v -0.166667 0.650000 1.000000
v 0.116667 0.587500 0.233334
v 0.116667 0.587500 -0.233334
v -0.116667 0.587500 0.233334
v -0.116667 0.587500 -0.233334
v -0.500000 1.000000 -0.555556
v -0.500000 1.000000 -0.777778
v -0.388889 1.000000 -1.000000
v -0.277778 1.000000 -1.000000
v -0.166667 1.000000 -0.777778
v -0.166667 1.000000 -0.555556
v -0.388889 1.000000 -0.333334
v -0.277778 1.000000 -0.333334
v -0.277778 1.000000 -0.777778
v -0.277778 1.000000 -0.555556
v -0.388889 1.000000 -0.777778
v -0.388889 1.000000 -0.555556
v -0.277778 1.000000 1.000000
v -0.388889 1.000000 1.000000
v -0.500000 1.000000 0.777778
v -0.500000 1.000000 0.555556
v -0.166667 1.000000 0.555556
v -0.166667 1.000000 0.777778
v -0.388889 1.000000 0.333334
v -0.277778 1.000000 0.333334
v -0.277778 1.000000 0.555556
v -0.277778 1.000000 0.777778
v -0.388889 1.000000 0.555556
v -0.388889 1.000000 0.777778
v 0.500000 1.000000 0.555556
v 0.500000 1.000000 0.777778
v 0.388889 1.000000 1.000000
v 0.277778 1.000000 1.000000
v 0.166667 1.000000 0.555556
v 0.166667 1.000000 0.777778
v 0.277778 1.000000 0.333334
v 0.388889 1.000000 0.333334
v 0.388889 1.000000 0.555556
v 0.388889 1.000000 0.777778
v 0.277778 1.000000 0.555556
v 0.277778 1.000000 0.777778
v 0.277778 1.000000 -1.000000
v 0.388889 1.000000 -1.000000
v 0.500000 1.000000 -0.777778
v 0.500000 1.000000 -0.555556
v 0.166667 1.000000 -0.777778
v 0.166667 1.000000 -0.555556
v 0.277778 1.000000 -0.333334
v 0.388889 1.000000 -0.333334
v 0.388889 1.000000 -0.777778
v 0.388889 1.000000 -0.555556
v 0.277778 1.000000 -0.777778
v 0.277778 1.000000 -0.555556
v -0.500000 0.900000 -0.555556
v -0.500000 0.900000 -0.777778
v -0.388889 0.900000 -1.000000
v -0.277778 0.900000 -1.000000
v -0.166667 0.900000 -0.777778
v -0.166667 0.900000 -0.555556
v -0.388889 0.900000 -0.333334
v -0.277778 0.900000 -0.333334
v -0.277778 0.900000 -0.555556
v -0.277778 0.900000 -0.777778
v -0.388889 0.900000 -0.555556
v -0.388889 0.900000 -0.777778
v -0.388889 1.000000 0.333334
v -0.277778 1.000000 0.333334
v -0.277778 1.000000 0.555556
v -0.388889 1.000000 0.555556
v -0.277778 0.900000 1.000000
v -0.388889 0.900000 1.000000
v -0.500000 0.900000 0.777778
v -0.500000 0.900000 0.555556
v -0.166667 0.900000 0.555556
v -0.166667 0.900000 0.777778
v -0.277778 0.900000 0.777778
v -0.277778 0.900000 0.555556
v -0.388889 0.900000 0.777778
v -0.388889 0.900000 0.555556
v -0.388889 0.900000 0.333334
v -0.277778 0.900000 0.333334
v -0.277778 0.900000 0.555556
v -0.388889 0.900000 0.555556
v 0.500000 0.900000 0.555556
v 0.500000 0.900000 0.777778
v 0.388889 0.900000 1.000000
v 0.277778 0.900000 1.000000
v 0.166667 0.900000 0.555556
v 0.166667 0.900000 0.777778
v 0.277778 0.900000 0.333334
v 0.388889 0.900000 0.333334
v 0.388889 0.900000 0.777778
v 0.388889 0.900000 0.555556
v 0.277778 0.900000 0.777778
v 0.277778 0.900000 0.555556
v 0.277778 0.900000 -1.000000
v 0.388889 0.900000 -1.000000
v 0.500000 0.900000 -0.777778
v 0.500000 0.900000 -0.555556
v 0.166667 0.900000 -0.777778
v 0.166667 0.900000 -0.555556
v 0.277778 0.900000 -0.333334
v 0.388889 0.900000 -0.333334
v 0.388889 0.900000 -0.555556
v 0.388889 0.900000 -0.777778
v 0.277778 0.900000 -0.555556
v 0.277778 0.900000 -0.777778
v 0.166667 0.650000 -0.333334
v 0.166667 0.650000 0.333334
v -0.166667 0.650000 -0.333334
v -0.166667 0.650000 0.333334
vn -0.0000 1.0000 -0.0000
vn -1.0000 -0.0000 -0.0000
vn 1.0000 -0.0000 -0.0000
vn -0.0000 -0.0000 -1.0000
vn -0.0000 -0.0000 1.0000
vn -0.0001 1.0000 -0.0000
vn -0.0000 -0.0000 -0.0000
vn -0.7809 0.6247 -0.0000
vn 0.7809 0.6247 -0.0000
vn -0.0000 0.8480 0.5300
vn -0.0000 0.8480 -0.5300
vn 0.0001 -1.0000 -0.0000
vn -0.0000 -1.0000 -0.0000
vn -1.0000 -0.0001 -0.0000
vn 1.0000 0.0001 -0.0000
vt 0.481481 0.820370
vt 0.444444 0.857407
vt 0.444444 0.820370
vt 0.518519 0.783333
vt 0.481481 0.783333
vt 0.407407 0.783333
vt 0.444444 0.783333
vt 0.703704 0.316667
vt 0.666667 0.350000
vt 0.666667 0.233333
vt 0.370370 0.820370
vt 0.333333 0.857407
vt 0.333333 0.820370
vt 0.703704 0.200000
vt 0.666667 0.116667
vt 0.000000 0.666667
vt 0.333333 0.666667
vt 0.111111 0.883333
vt 0.777778 0.350000
vt 0.740741 0.433333
vt 0.703704 0.433333
vt 0.333333 0.000000
vt 0.666667 0.000000
vt 0.444444 0.216667
vt 0.666667 0.666667
vt 0.555556 0.777778
vt 0.555556 0.666667
vt 0.888889 0.111111
vt 0.777778 0.000000
vt 0.888889 0.000000
vt 0.777778 0.700000
vt 0.666667 0.811111
vt 0.666667 0.700000
vt 0.633333 0.777778
vt 0.555556 0.855555
vt 0.888889 0.222222
vt 0.777778 0.111111
vt 0.777778 0.583333
vt 0.740741 0.666667
vt 0.703704 0.666667
vt 0.518518 0.750000
vt 0.481481 0.750000
vt 0.370370 0.783333
vt 0.333333 0.783333
vt 0.400000 0.857407
vt 0.433333 0.894444
vt 0.400000 0.894444
vt 0.481482 0.783333
vt 0.588889 0.892593
vt 0.555556 0.892593
vt 0.666667 0.848148
vt 0.700000 0.885185
vt 0.666667 0.885185
vt 0.878531 0.832788
vt 0.841494 0.795751
vt 0.878531 0.795751
vt 0.841494 0.869825
vt 0.804457 0.832788
vt 0.841494 0.832788
vt 0.804457 0.758714
vt 0.841494 0.758714
vt 0.703704 0.811111
vt 0.882534 0.259259
vt 0.915868 0.296296
vt 0.882534 0.296296
vt 0.878531 0.758714
vt 0.407407 0.820370
vt 0.370370 0.857407
vt 0.551852 0.820370
vt 0.518519 0.820370
vt 0.851852 0.536492
vt 0.885185 0.573529
vt 0.851852 0.573529
vt 0.666667 0.814815
vt 0.633333 0.814815
vt 0.740741 0.811111
vt 0.703704 0.848148
vt 0.740741 0.848148
vt 0.774074 0.885185
vt 0.740741 0.885185
vt 0.407407 0.857407
vt 0.774074 0.848148
vt 0.915868 0.333333
vt 0.882534 0.333333
vt 0.518519 0.857407
vt 0.830156 0.457924
vt 0.882534 0.457924
vt 0.856345 0.484114
vt 0.830156 0.510303
vt 0.882534 0.510303
vt 0.856345 0.536492
vt 0.777778 0.510303
vt 0.803967 0.536492
vt 0.803967 0.484114
vt 0.777778 0.457924
vt 0.885185 0.610566
vt 0.851852 0.610566
vt 0.588889 0.855555
vt 0.622222 0.892593
vt 0.370370 0.750000
vt 0.444444 0.666667
vt 0.882534 0.222222
vt 0.915868 0.259259
vt 0.911865 0.795751
vt 0.874828 0.832788
vt 0.908161 0.869825
vt 0.874828 0.869825
vt 0.666667 0.851852
vt 0.633333 0.851852
vt 0.551852 0.857407
vt 0.814815 0.573529
vt 0.814815 0.610566
vt 0.777778 0.610566
vt 0.814815 0.647603
vt 0.777778 0.647603
vt 0.777778 0.573529
vt 0.777778 0.536492
vt 0.804457 0.795751
vt 0.666667 0.466667
vt 0.777778 0.466667
vt 0.703704 0.550000
vt 0.804457 0.869825
vt 0.837791 0.906862
vt 0.804457 0.906862
vt 0.500000 0.857407
vt 0.533333 0.894444
vt 0.500000 0.894444
vt 0.666667 0.888889
vt 0.633333 0.888889
vt 0.366667 0.857407
vt 0.366667 0.894444
vt 0.857817 0.684640
vt 0.891150 0.721677
vt 0.857817 0.721677
vt 0.830156 0.353168
vt 0.882534 0.353168
vt 0.856345 0.379357
vt 0.830156 0.405546
vt 0.882534 0.405546
vt 0.856345 0.431735
vt 0.777778 0.405546
vt 0.803967 0.431735
vt 0.803967 0.379357
vt 0.777778 0.353168
vt 0.333333 0.333333
vt 0.666667 0.333333
vt 0.444444 0.550000
vt 0.885185 0.647603
vt 0.851852 0.647603
vt 0.333333 0.894444
vt 0.857817 0.647603
vt 0.891150 0.684640
vt 0.000000 0.333333
vt 0.111111 0.550000
vt 0.433333 0.857407
vt 0.466667 0.894444
vt 0.466667 0.857407
vt 0.856345 0.274600
vt 0.856345 0.326979
vt 0.830156 0.300790
vt 0.803967 0.274600
vt 0.803967 0.326979
vt 0.777778 0.300790
vt 0.803967 0.222222
vt 0.777778 0.248411
vt 0.830156 0.248411
vt 0.856345 0.222222
vt 0.737037 0.885185
vt 0.703704 0.885185
vt 0.874828 0.906862
vt 0.841494 0.906862
vt 0.740741 0.083333
vt 0.703704 0.083333
vt 0.908161 0.906862
vt 0.911865 0.832788
vt 0.831137 0.664270
vt 0.857817 0.758714
vt 0.831137 0.742047
vt 0.804457 0.664270
vt 0.831137 0.758714
vt 0.804457 0.742047
vt 0.777778 0.664270
vt 0.777778 0.742047
vt 0.777778 0.775381
vt 0.777778 0.853158
vt 0.481481 0.857407
vt 0.740741 0.350000
vt 0.740741 0.316667
vt 0.777778 0.233333
vt 0.703704 0.350000
vt 0.740741 0.233333
vt 0.740741 0.200000
vt 0.777778 0.116667
vt 0.703704 0.233333
vt 0.333333 1.000000
vt 0.296296 0.966667
vt 0.296296 1.000000
vt 0.037037 1.000000
vt 0.000000 1.000000
vt 0.037037 0.966667
vt 0.222222 0.883333
vt 0.259259 0.966667
vt 0.259259 1.000000
vt 0.222222 1.000000
vt 0.111111 1.000000
vt 0.074074 0.966667
vt 0.074074 1.000000
vt 0.703704 0.466667
vt 0.740741 0.466667
vt 0.629630 0.300000
vt 0.629630 0.333333
vt 0.370370 0.333333
vt 0.370370 0.300000
vt 0.555556 0.216667
vt 0.592593 0.300000
vt 0.592593 0.333333
vt 0.555556 0.333333
vt 0.444444 0.333333
vt 0.407407 0.300000
vt 0.407407 0.333333
vt 0.666667 0.777778
vt 0.777778 0.811111
vt 0.633333 0.855555
vt 0.777778 0.222222
vt 0.703704 0.700000
vt 0.666667 0.583333
vt 0.740741 0.700000
vt 0.555556 0.783333
vt 0.518518 0.783333
vt 0.481482 0.820370
vt 0.700000 0.848148
vt 0.551852 0.783333
vt 0.885185 0.536492
vt 0.774074 0.811111
vt 0.622222 0.855555
vt 0.407407 0.750000
vt 0.915868 0.222222
vt 0.911865 0.758714
vt 0.908161 0.832788
vt 0.814815 0.536492
vt 0.740741 0.583333
vt 0.740741 0.550000
vt 0.703704 0.583333
vt 0.837791 0.869825
vt 0.533333 0.857407
vt 0.629630 0.633333
vt 0.629630 0.666667
vt 0.370370 0.666667
vt 0.370370 0.633333
vt 0.555556 0.550000
vt 0.592593 0.633333
vt 0.592593 0.666667
vt 0.407407 0.633333
vt 0.407407 0.666667
vt 0.891150 0.647603
vt 0.296296 0.633333
vt 0.296296 0.666667
vt 0.037037 0.666667
vt 0.037037 0.633333
vt 0.222222 0.550000
vt 0.259259 0.633333
vt 0.259259 0.666667
vt 0.222222 0.666667
vt 0.111111 0.666667
vt 0.074074 0.633333
vt 0.074074 0.666667
vt 0.882534 0.300790
vt 0.882534 0.248411
vt 0.737037 0.848148
vt 0.703704 0.116667
vt 0.740741 0.116667
vt 0.831137 0.647603
vt 0.804457 0.647603
s 0
f 63/5/2 62/6/2 72/7/2
f 78/8/2 76/5/2 84/9/2
f 90/7/2 91/10/2 96/11/2
f 143/12/3 28/13/3 40/14/3
f 49/15/2 55/16/2 60/17/2
f 131/18/3 33/14/3 152/19/3
f 7/20/3 5/21/3 38/22/3
f 154/23/4 117/24/4 118/25/4
f 11/26/5 7/27/5 40/28/5
f 154/29/2 43/30/2 152/31/2
f 151/32/2 42/33/2 41/34/2
f 39/35/2 151/36/2 40/37/2
f 48/38/2 45/39/2 46/30/2
f 38/40/2 154/41/2 153/32/2
f 152/42/5 133/43/5 134/44/5
f 146/45/6 145/46/6 41/31/6
f 58/47/2 23/17/2 54/48/2
f 50/49/6 108/50/6 59/51/6
f 52/52/2 53/7/2 15/11/2
f 55/39/4 107/53/4 60/54/4
f 57/55/6 101/56/6 53/57/6
f 8/58/2 59/59/2 51/60/2
f 70/61/2 20/62/2 66/63/2
f 112/14/7 122/14/6 126/14/2
f 68/59/2 65/64/2 24/65/2
f 69/14/7 125/14/6 120/14/2
f 13/66/2 71/55/2 67/36/2
f 70/67/3 113/68/3 61/69/3
f 82/60/2 10/65/2 74/70/2
f 80/71/2 73/72/2 18/15/2
f 80/8/3 136/73/3 81/74/3
f 84/75/5 132/76/5 78/77/5
f 83/38/4 133/78/4 79/79/4
f 22/10/2 83/15/2 79/47/2
f 94/80/2 17/81/2 88/66/2
f 89/82/6 150/83/6 95/84/6
f 86/7/2 87/85/2 12/71/2
f 91/80/4 149/86/4 96/82/4
f 93/69/6 141/87/6 87/88/6
f 16/89/2 95/5/2 85/74/2
f 107/90/2 104/91/2 105/92/2
f 106/93/2 102/94/2 101/95/2
f 99/96/2 106/93/2 100/97/2
f 108/98/2 105/92/2 106/93/2
f 98/99/2 107/90/2 108/98/2
f 58/77/3 104/100/3 56/101/3
f 54/102/5 105/103/5 58/53/5
f 124/104/5 154/21/5 37/105/5
f 59/106/4 99/107/4 51/67/4
f 60/70/5 97/108/5 49/60/5
f 52/109/3 106/110/3 57/111/3
f 66/79/5 119/112/5 70/113/5
f 69/74/6 117/114/6 65/89/6
f 67/14/8 112/14/8 109/14/8
f 69/14/8 110/14/8 111/14/8
f 121/115/2 113/101/2 119/116/2
f 120/117/2 118/118/2 117/119/2
f 122/120/2 119/116/2 120/117/2
f 116/121/2 121/115/2 122/120/2
f 123/59/2 125/62/2 124/122/2
f 122/14/3 125/14/3 126/14/6
f 38/123/6 153/124/6 103/125/6
f 64/126/6 122/127/6 71/128/6
f 62/129/4 121/130/4 72/131/4
f 110/113/3 125/132/3 111/133/3
f 72/134/5 115/51/5 63/135/5
f 112/136/4 123/137/4 109/138/4
f 137/139/2 129/140/2 135/141/2
f 136/142/2 128/143/2 127/144/2
f 133/145/2 136/142/2 134/146/2
f 138/147/2 135/141/2 136/142/2
f 131/148/2 137/139/2 138/147/2
f 5/149/6 9/150/6 44/151/6
f 81/101/6 127/152/6 73/153/6
f 76/16/4 137/135/4 84/154/4
f 77/155/6 138/156/6 83/136/6
f 9/157/4 11/149/4 42/158/4
f 82/159/3 129/160/3 75/50/3
f 74/161/5 135/131/5 82/160/5
f 149/162/2 146/163/2 147/164/2
f 148/165/2 142/166/2 141/167/2
f 139/168/2 148/165/2 140/169/2
f 150/170/2 147/164/2 148/165/2
f 143/171/2 149/162/2 150/170/2
f 94/81/3 146/172/3 92/173/3
f 88/61/5 147/174/5 94/175/5
f 39/33/4 101/176/4 102/177/4
f 95/111/4 139/178/4 85/174/4
f 96/63/5 144/111/5 90/61/5
f 86/60/3 148/179/3 93/58/3
f 45/180/9 151/181/9 46/182/9
f 48/183/10 154/184/10 47/185/10
f 46/186/11 153/64/11 48/187/11
f 47/188/12 152/126/12 45/189/12
f 63/5/2 6/190/2 62/6/2
f 78/8/2 19/74/2 76/5/2
f 90/7/2 21/71/2 91/10/2
f 34/23/8 21/23/8 90/191/8
f 34/23/3 90/191/3 144/192/3
f 40/14/3 151/193/3 144/192/3
f 151/193/3 34/23/3 144/192/3
f 89/194/8 16/13/8 28/13/8
f 143/12/3 89/194/3 28/13/3
f 40/14/3 144/192/3 143/12/3
f 49/15/2 14/72/2 55/16/2
f 31/193/8 19/193/8 78/195/8
f 31/193/3 78/195/3 132/196/3
f 152/19/3 43/197/3 132/196/3
f 43/197/3 31/193/3 132/196/3
f 77/198/8 22/14/8 33/14/8
f 131/18/3 77/198/3 33/14/3
f 152/19/3 132/196/3 131/18/3
f 5/21/3 6/199/3 115/200/3
f 6/199/3 63/201/3 115/200/3
f 50/202/3 8/203/3 98/204/3
f 8/203/3 7/20/3 98/204/3
f 5/21/3 115/200/3 37/205/3
f 115/200/3 116/206/3 37/205/3
f 64/207/8 13/208/8 25/208/8
f 64/207/3 25/208/3 116/206/3
f 25/208/3 37/205/3 116/206/3
f 38/22/13 26/209/6 14/209/14
f 38/22/3 14/209/3 97/210/3
f 14/209/3 49/211/3 97/210/3
f 5/21/3 37/205/3 38/22/3
f 97/210/3 98/204/3 38/22/3
f 98/204/3 7/20/3 38/22/3
f 66/212/8 20/123/8 32/123/8
f 32/123/4 44/13/4 118/25/4
f 44/13/4 154/23/4 118/25/4
f 35/124/8 24/124/8 65/213/8
f 118/25/4 66/212/4 32/123/4
f 35/124/4 65/213/4 117/24/4
f 154/23/4 35/124/4 117/24/4
f 7/27/5 8/150/5 99/214/5
f 8/150/5 51/215/5 99/214/5
f 86/216/5 12/149/5 140/217/5
f 12/149/5 11/26/5 140/217/5
f 7/27/5 99/214/5 39/218/5
f 99/214/5 100/219/5 39/218/5
f 52/220/15 15/221/6 27/221/4
f 52/220/5 27/221/5 100/219/5
f 27/221/5 39/218/5 100/219/5
f 40/28/13 28/222/6 16/222/2
f 40/28/5 16/222/5 139/223/5
f 16/222/5 85/224/5 139/223/5
f 7/27/5 39/218/5 40/28/5
f 139/223/5 140/217/5 40/28/5
f 140/217/5 11/26/5 40/28/5
f 154/29/2 44/225/2 43/30/2
f 151/32/2 152/41/2 42/33/2
f 39/35/2 153/226/2 151/36/2
f 48/38/2 47/227/2 45/39/2
f 38/40/2 37/228/2 154/41/2
f 80/229/15 18/37/6 30/37/4
f 30/37/5 42/230/5 134/44/5
f 42/230/5 152/42/5 134/44/5
f 33/35/6 22/35/3 79/231/16
f 134/44/5 80/229/5 30/37/5
f 33/35/5 79/231/5 133/43/5
f 152/42/5 33/35/5 133/43/5
f 91/9/6 21/11/6 34/11/6
f 34/11/6 151/105/6 145/46/6
f 151/105/6 41/31/6 145/46/6
f 29/232/6 17/232/6 92/233/6
f 145/46/6 91/9/6 34/11/6
f 29/232/6 92/233/6 146/45/6
f 41/31/6 29/232/6 146/45/6
f 58/47/2 56/15/2 23/17/2
f 50/49/6 98/159/6 108/50/6
f 52/52/2 57/234/2 53/7/2
f 55/39/4 103/102/4 107/53/4
f 57/55/6 106/235/6 101/56/6
f 8/58/2 50/63/2 59/59/2
f 70/61/2 61/126/2 20/62/2
f 112/14/6 71/14/2 122/14/13
f 68/59/2 69/122/2 65/64/2
f 69/14/6 111/14/2 125/14/13
f 13/66/2 64/81/2 71/55/2
f 70/67/3 119/107/3 113/68/3
f 82/60/2 75/59/2 10/65/2
f 80/71/2 81/85/2 73/72/2
f 80/8/3 134/236/3 136/73/3
f 84/75/5 137/237/5 132/76/5
f 83/38/4 138/225/4 133/78/4
f 22/10/2 77/71/2 83/15/2
f 94/80/2 92/82/2 17/81/2
f 89/82/6 143/86/6 150/83/6
f 86/7/2 93/6/2 87/85/2
f 91/80/4 145/238/4 149/86/4
f 93/69/6 148/68/6 141/87/6
f 16/89/2 89/190/2 95/5/2
f 107/90/2 103/144/2 104/91/2
f 106/93/2 105/92/2 102/94/2
f 99/96/2 108/98/2 106/93/2
f 108/98/2 107/90/2 105/92/2
f 98/99/2 97/146/2 107/90/2
f 58/77/3 105/76/3 104/100/3
f 54/102/5 102/239/5 105/103/5
f 37/105/13 25/11/6 13/11/14
f 67/10/6 109/10/14 123/240/13
f 37/105/5 13/11/5 123/240/5
f 13/11/5 67/10/5 123/240/5
f 24/48/6 35/48/14 154/21/13
f 124/104/13 110/47/6 68/47/14
f 68/47/5 24/48/5 124/104/5
f 24/48/5 154/21/5 124/104/5
f 37/105/5 123/240/5 124/104/5
f 59/106/4 108/241/4 99/107/4
f 60/70/5 107/242/5 97/108/5
f 52/109/3 100/243/3 106/110/3
f 66/79/5 118/78/5 119/112/5
f 69/74/6 120/73/6 117/114/6
f 67/14/8 71/14/8 112/14/8
f 69/14/8 68/14/8 110/14/8
f 121/115/2 114/77/2 113/101/2
f 120/117/2 119/116/2 118/118/2
f 122/120/2 121/115/2 119/116/2
f 116/121/2 115/244/2 121/115/2
f 123/59/2 126/63/2 125/62/2
f 122/14/15 120/14/6 125/14/3
f 153/124/6 36/42/6 23/42/6
f 23/42/6 56/245/6 104/246/6
f 153/124/6 23/42/6 104/246/6
f 103/125/6 55/247/6 14/230/6
f 153/124/6 104/246/6 103/125/6
f 14/230/6 38/123/6 103/125/6
f 64/126/6 116/248/6 122/127/6
f 62/129/4 114/249/4 121/130/4
f 110/113/3 124/112/3 125/132/3
f 72/134/5 121/49/5 115/51/5
f 112/136/4 126/156/4 123/137/4
f 137/139/2 130/163/2 129/140/2
f 136/142/2 135/141/2 128/143/2
f 133/145/2 138/147/2 136/142/2
f 138/147/2 137/139/2 135/141/2
f 131/148/2 132/166/2 137/139/2
f 9/150/6 10/29/6 129/250/6
f 10/29/6 75/251/6 129/250/6
f 62/252/6 6/21/6 114/253/6
f 6/21/6 5/149/6 114/253/6
f 9/150/6 129/250/6 43/254/6
f 129/250/6 130/255/6 43/254/6
f 76/256/6 19/31/6 31/31/6
f 76/256/6 31/31/6 130/255/6
f 31/31/6 43/254/6 130/255/6
f 44/151/6 32/105/6 20/105/6
f 44/151/6 20/105/6 113/257/6
f 20/105/6 61/258/6 113/257/6
f 9/150/6 43/254/6 44/151/6
f 113/257/6 114/253/6 44/151/6
f 114/253/6 5/149/6 44/151/6
f 81/101/6 136/100/6 127/152/6
f 76/16/4 130/134/4 137/135/4
f 77/155/6 131/259/6 138/156/6
f 11/149/4 12/21/4 141/260/4
f 12/21/4 87/261/4 141/260/4
f 74/262/4 10/20/4 128/263/4
f 10/20/4 9/157/4 128/263/4
f 11/149/4 141/260/4 41/264/4
f 141/260/4 142/265/4 41/264/4
f 88/266/8 17/267/8 29/267/8
f 88/266/4 29/267/4 142/265/4
f 29/267/4 41/264/4 142/265/4
f 42/158/13 30/268/6 18/268/2
f 42/158/4 18/268/4 127/269/4
f 18/268/4 73/270/4 127/269/4
f 11/149/4 41/264/4 42/158/4
f 127/269/4 128/263/4 42/158/4
f 128/263/4 9/157/4 42/158/4
f 82/159/3 135/161/3 129/160/3
f 74/161/5 128/129/5 135/131/5
f 149/162/2 145/271/2 146/163/2
f 148/165/2 147/164/2 142/166/2
f 139/168/2 150/170/2 148/165/2
f 150/170/2 149/162/2 147/164/2
f 143/171/2 144/272/2 149/162/2
f 94/81/3 147/273/3 146/172/3
f 88/61/5 142/111/5 147/174/5
f 54/274/8 23/19/8 36/19/8
f 36/19/4 153/27/4 102/177/4
f 153/27/4 39/33/4 102/177/4
f 27/197/8 15/197/8 53/275/8
f 102/177/4 54/274/4 36/19/4
f 27/197/4 53/275/4 101/176/4
f 39/33/4 27/197/4 101/176/4
f 95/111/4 150/110/4 139/178/4
f 96/63/5 149/109/5 144/111/5
f 86/60/3 140/108/3 148/179/3
f 45/180/9 152/155/9 151/181/9
f 48/183/10 153/276/10 154/184/10
f 46/186/11 151/277/11 153/64/11
f 47/188/12 154/64/12 152/126/12
